<?xml version="1.0" encoding="UTF-8" standalone="no"?>
<!-- Created with Inkscape (http://www.inkscape.org/) -->

<svg
   viewBox="0 0 143.67445 105.03222"
   height="105.03222"
   width="143.67445"
   id="svg2"
   version="1.1"
   xmlns="http://www.w3.org/2000/svg"
   xmlns:svg="http://www.w3.org/2000/svg">
  <defs
     id="defs6" />
  <g
     id="layer1"
     transform="matrix(1.2292297,0,0,1.2292297,-575.694,-558.04019)">
    <path
       style="display:inline;fill:#cbe3ff;fill-opacity:1;stroke-width:0.145781"
       d="m 486.94823,539.21163 c -3.74006,-0.67707 -8.39464,-2.80088 -9.96271,-4.54582 -0.27658,-0.30778 -0.0646,-0.54063 3.72316,-4.08989 1.55199,-1.45427 1.47433,-1.44942 2.30974,-0.14429 0.37199,0.58115 1.73322,2.69385 3.02495,4.6949 2.15749,3.3422 2.65536,4.32895 2.16639,4.29364 -0.10022,-0.007 -0.66791,-0.10108 -1.26153,-0.20854 z m 3.07702,0.13124 c -0.22386,-0.0996 -1.67628,-2.25964 -4.5464,-6.76125 -1.15022,-1.80404 -2.17893,-3.38364 -2.28603,-3.51022 -0.42292,-0.49985 -0.21263,-0.67534 2.58714,-2.15894 1.53003,-0.81076 2.83986,-1.47411 2.91073,-1.47411 0.11931,0 1.39007,1.02773 4.2934,3.47228 0.64144,0.54008 1.57773,1.30262 2.08064,1.69453 1.0698,0.83367 0.93851,0.43437 1.55638,4.73339 0.53371,3.71341 0.53357,3.72702 -0.0387,3.87215 -0.50038,0.1269 -6.3061,0.24392 -6.55713,0.13217 z m 8.0656,-0.67489 c -0.11661,-0.51678 -0.93407,-5.77832 -1.03896,-6.68724 l -0.0946,-0.81954 1.21537,-1.36717 c 2.97663,-3.3484 5.28315,-5.81349 5.43953,-5.81349 0.0934,0 0.75119,0.23701 1.46172,0.52668 0.71052,0.28968 2.57167,1.01056 4.13589,1.60197 1.56421,0.5914 2.88177,1.11302 2.9279,1.15915 0.35933,0.35933 -2.42903,4.56937 -4.19786,6.33819 -2.97207,2.97207 -9.55688,6.35603 -9.84902,5.06145 z m 19.22285,-0.22091 c -0.2941,-0.1949 -0.36364,-4.49675 -0.0767,-4.74403 0.21926,-0.18894 3.80179,-2.18313 8.36975,-4.65896 2.22401,-1.20541 1.96801,-1.27196 3.61828,0.94066 l 1.33405,1.78865 -0.0957,1.09658 c -0.39241,4.49666 -0.51063,5.44485 -0.69325,5.56061 -0.23821,0.15098 -12.22955,0.16686 -12.45644,0.0165 z m 13.8061,-0.0225 c -0.16236,-0.10279 -0.18589,-0.39641 -0.11375,-1.41914 0.16903,-2.39642 0.40764,-4.76959 0.49354,-4.90857 0.22952,-0.37138 7.4927,-3.76675 7.69625,-3.59782 0.58793,0.48793 4.15554,5.27015 4.15504,5.56963 -10e-4,0.84245 -0.75007,4.13489 -0.97951,4.30774 -0.28864,0.21743 -10.91238,0.2629 -11.25157,0.0482 z m 12.67539,-0.005 c -0.21489,-0.13593 -0.12848,-0.80862 0.45728,-3.55993 l 0.15119,-0.71016 3.1109,-1.50434 c 1.71099,-0.82738 3.43206,-1.6184 3.82459,-1.75782 l 0.7137,-0.25348 1.77743,1.28483 c 0.97759,0.70666 1.83378,1.39084 1.90264,1.5204 0.32055,0.6031 1.05599,4.86752 0.8608,4.99125 -0.26669,0.16905 -12.53058,0.15874 -12.79853,-0.0108 z m 14.22775,-0.0469 c -0.21884,-0.16002 -0.91177,-2.8151 -1.29587,-4.96538 -0.0794,-0.44462 5.79327,-5.05363 6.43923,-5.05363 0.20544,0 7.57976,6.08581 8.01643,6.61572 0.23631,0.28677 -0.29467,3.27008 -0.61871,3.47622 -0.32004,0.20359 -12.25785,0.13418 -12.54108,-0.0729 z m 14.04631,-0.0343 c -0.18729,-0.22568 0.0205,-2.64156 0.26474,-3.07801 0.0576,-0.10294 1.10097,-1.3283 2.31857,-2.72302 l 2.21383,-2.53585 1.21004,-0.45235 c 4.79085,-1.79096 6.46533,-2.37107 6.73352,-2.33279 0.42082,0.0601 0.5676,10.69685 0.15333,11.11112 -0.34102,0.34102 -12.61144,0.3514 -12.89403,0.0109 z m -1.62414,-5.21249 c -0.69342,-0.58015 -2.26785,-1.88895 -3.49875,-2.90845 -1.98495,-1.64406 -3.18809,-2.69531 -3.1843,-2.7823 0.003,-0.0653 0.4374,-3.61955 0.59174,-4.83983 0.25519,-2.01763 -0.20653,-1.83307 4.47329,-1.78812 l 4.03311,0.0387 0.5434,1.45781 c 1.33381,3.57836 2.48148,6.73024 2.55042,7.00435 0.0816,0.32465 -0.0654,0.51774 -2.47516,3.25044 -1.69773,1.92523 -1.46319,1.88137 -3.03375,0.56736 z M 475.02498,532.79 c -2.48687,-2.88039 -4.49412,-6.65753 -5.31459,-10.00071 -0.45815,-1.86681 -0.75756,-1.72469 3.63371,-1.72469 4.33438,0 3.94314,-0.12394 4.97871,1.57707 0.40603,0.66694 1.36167,2.18402 2.12363,3.37128 1.67655,2.61232 1.71417,2.1288 -0.30738,3.94999 -4.7376,4.26805 -4.15028,3.94338 -5.11408,2.82706 z m 67.06008,-2.13051 c -1.04359,-1.38848 -1.9864,-2.66863 -2.09513,-2.84478 -0.19148,-0.3102 0.25981,-3.44331 0.56774,-3.94154 0.0541,-0.0876 1.38892,-0.8209 2.96625,-1.62966 l 2.86786,-1.47048 h 2.1794 c 1.56723,0 2.22106,0.0512 2.32772,0.18223 0.1923,0.23625 0.69422,8.69503 0.52497,8.84718 -0.19595,0.17616 -6.69093,3.19321 -7.08962,3.29328 -0.31725,0.0796 -0.53785,-0.15932 -2.24919,-2.43623 z m -24.87702,1.67884 c -0.0534,-0.0534 -0.0972,-2.08173 -0.0972,-4.50729 v -4.41011 l 1.34848,-1.79774 c 1.67878,-2.23808 1.3677,-2.20684 4.77212,-0.47925 3.66693,1.86081 3.34576,1.52165 3.61236,3.81474 0.27551,2.36976 0.37578,2.16531 -1.59476,3.25171 -7.75578,4.27596 -7.84645,4.3225 -8.04101,4.12794 z m 37.56474,-0.85801 c -0.62907,-0.43426 -1.40216,-1.01016 -1.71797,-1.2798 l -0.5742,-0.49024 -0.25663,-4.28039 c -0.18324,-3.05624 -0.21196,-4.33422 -0.10041,-4.46862 0.24038,-0.28965 11.32185,-0.27413 11.43319,0.016 0.11669,0.30411 -0.67645,6.25077 -0.86462,6.48253 -0.0891,0.10973 -0.64931,0.52835 -1.24493,0.93027 -0.59562,0.40192 -1.97517,1.39949 -3.06566,2.21682 -2.50667,1.87876 -2.24437,1.81528 -3.60877,0.87343 z m -25.00872,-2.28843 c -1.74616,-2.25999 -2.15697,-3.41785 -2.15697,-6.07934 v -0.56728 l 2.2053,-1.46924 c 2.5859,-1.72281 2.47781,-1.70675 4.31324,-0.64067 0.78459,0.45572 2.31215,1.33353 3.39457,1.95069 2.26765,1.29293 2.17298,1.11908 1.74716,3.20864 -0.39354,1.9311 -0.0827,1.65943 -4.18796,3.6604 -4.26194,2.07735 -3.65589,2.08456 -5.31534,-0.0632 z m -34.60068,0.35421 c -0.55717,-0.46667 -1.99706,-1.6622 -3.19976,-2.65673 -1.20269,-0.99452 -2.31104,-1.92209 -2.463,-2.06124 -0.88526,-0.81069 0.0509,-2.20129 1.62928,-2.4202 2.37031,-0.32876 3.82376,-1.45046 4.62132,-3.5665 0.34545,-0.91654 0.27158,-0.93693 3.43338,0.94758 3.45382,2.05857 4.04078,2.93543 2.87534,4.29547 -0.71839,0.83835 -3.75182,4.26497 -4.36004,4.92518 -0.29546,0.32072 -0.67853,0.76353 -0.85127,0.98403 -0.42932,0.54802 -0.52777,0.52187 -1.68525,-0.44759 z m 81.51608,-1.0137 c -0.43248,-0.83633 -2.7258,-7.37254 -2.65317,-7.56182 0.14005,-0.36497 10.8167,-0.28312 11.01341,0.0844 0.30719,0.574 0.19164,4.7883 -0.1361,4.9637 -0.54065,0.28935 -7.65692,2.91806 -7.89957,2.91806 -0.0635,0 -0.20955,-0.18197 -0.32457,-0.40437 z m -94.45493,-1.51915 c -0.40798,-0.54103 -2.82174,-4.23986 -3.64727,-5.58905 l -0.53817,-0.87954 1.60979,-4.80569 c 1.88666,-5.63223 1.62914,-5.24237 3.46326,-5.24301 l 1.41665,-4.9e-4 0.10088,2.33011 c 0.23198,5.3583 1.08096,7.68351 3.37719,9.24953 0.6959,0.4746 0.70662,0.49349 0.6153,1.08472 -0.2179,1.41084 -0.16712,1.36253 -3.00821,2.86132 -3.12556,1.64886 -2.936,1.59338 -3.38942,0.9921 z m 25.8479,-2.30809 c -2.04458,-0.78924 -3.82205,-1.43923 -3.94994,-1.44441 -0.37272,-0.0151 -0.70901,-0.49471 -0.9562,-1.36366 l -0.23009,-0.80881 2.00943,-2.96391 c 2.87082,-4.23444 3.07279,-4.49461 3.48912,-4.49461 0.71462,0 5.98555,0.90929 6.17644,1.0655 0.48333,0.39552 -0.25434,6.20879 -1.16895,9.21207 -0.84007,2.7585 -0.44328,2.69955 -5.36981,0.79783 z m 29.01043,-3.61505 c -1.64368,-0.94317 -3.26681,-1.87597 -3.60696,-2.07288 -0.73327,-0.42449 -0.74308,-0.50282 -0.39523,-3.15634 0.25558,-1.94968 2.58195,-3.10822 8.45308,-4.20965 0.49077,-0.0921 0.56223,-0.0391 2.58258,1.91378 1.14282,1.10466 2.36545,2.28601 2.71698,2.62523 0.80816,0.77988 0.77748,0.9287 -0.54381,2.63833 -1.14036,1.47553 -1.4267,1.68865 -4.05614,3.01893 -2.31465,1.17103 -1.60896,1.27481 -5.1505,-0.7574 z m -13.46445,-0.7869 c -3.12542,-1.68874 -3.05048,-1.60948 -2.40838,-2.54712 1.23299,-1.80048 6.74446,-9.32197 6.94851,-9.48261 0.50369,-0.39654 4.33948,5.14289 4.19856,6.06334 -0.0448,0.29264 -0.1553,1.2526 -0.24556,2.13323 -0.21842,2.1312 -0.16546,2.04328 -1.97372,3.27676 -0.87073,0.59396 -1.90135,1.29744 -2.29026,1.56331 -1.0032,0.68579 -1.16982,0.64612 -4.22915,-1.00691 z m -21.88746,-0.0512 c -5.83215,-3.0356 -5.65783,-2.75383 -5.53997,-8.95477 0.10659,-5.60815 0.0484,-5.34185 1.11604,-5.10651 0.42867,0.0945 1.81769,0.39607 3.08671,0.67016 1.26902,0.2741 2.39672,0.5484 2.506,0.60956 0.23728,0.13279 3.96331,4.92822 4.18175,5.38195 0.13273,0.27571 -0.0854,0.6662 -1.70985,3.0614 -1.82178,2.68608 -3.13247,4.56854 -3.17969,4.56674 -0.013,-4.3e-4 -0.22045,-0.10333 -0.46099,-0.22853 z m -31.60493,-0.17944 c -0.81953,-0.0527 -0.85534,-0.10856 -1.18747,-1.85073 -0.51026,-2.67657 -0.77504,-6.3597 -0.47508,-6.60864 0.68342,-0.56719 11.76478,-1.06362 11.76478,-0.52704 0,0.23869 -2.82158,8.68783 -2.99499,8.96842 -0.0858,0.13879 -5.03574,0.15131 -7.10724,0.018 z m 75.11301,-6.67707 c -1.43907,-1.42506 -2.61649,-2.68317 -2.61649,-2.7958 0,-0.20278 0.29191,-1.24272 0.95814,-3.41345 0.39219,-1.27783 0.28221,-1.15813 3.77306,-4.1066 2.59002,-2.18759 2.07809,-2.12741 4.95307,-0.58221 4.47061,2.40281 4.68568,0.99873 -1.50423,9.82026 -3.03234,4.32152 -2.40974,4.20091 -5.56355,1.0778 z m -34.39676,-0.3294 c -2.97962,-0.45206 -2.66933,-0.3081 -3.73645,-1.73359 -0.46469,-0.62075 -1.42741,-1.87311 -2.13938,-2.78303 l -1.29448,-1.65439 0.3611,-0.38654 c 0.19861,-0.2126 1.09794,-1.30496 1.99851,-2.42748 1.98698,-2.47665 1.3773,-2.16734 5.04582,-2.55991 3.97387,-0.42524 3.55407,-0.77378 3.56071,2.95624 0.003,1.70633 0.0415,4.33524 0.0856,5.84203 0.10643,3.64185 0.44406,3.40292 -3.88141,2.74667 z m 22.06006,-0.3475 c -0.3855,-0.42825 -3.83743,-5.57047 -3.83743,-5.71649 0,-0.0617 0.21881,-0.41613 0.48624,-0.78768 5.05027,-7.01651 5.49417,-7.60015 5.78055,-7.60015 0.1474,0 2.41015,2.12373 5.73495,5.38259 1.58033,1.54899 1.86024,1.88937 1.80718,2.19768 -0.13713,0.79687 -1.17363,4.16646 -1.33518,4.34055 -0.1227,0.13222 -7.991,2.51151 -8.30556,2.51151 -0.0195,0 -0.16836,-0.14761 -0.33075,-0.32801 z m -33.13942,-6.89995 c -3.55834,-0.81151 -3.30202,-0.71752 -3.4085,-1.24988 -0.16313,-0.81566 -0.10423,-12.78034 0.0634,-12.88396 0.12532,-0.0774 3.18716,1.06251 5.53734,2.06162 0.55832,0.23736 0.43739,0.0646 3.38378,4.83332 l 1.73508,2.80819 -0.77439,0.98211 c -2.32472,2.94833 -3.36226,4.13162 -3.60081,4.10666 -0.0513,-0.005 -1.37242,-0.30148 -2.93592,-0.65806 z m 42.25235,-2.19318 c -3.88785,-3.66266 -6.24443,-5.9436 -6.24443,-6.04399 0,-0.0605 0.83642,-1.2718 1.85871,-2.69181 1.02229,-1.42001 2.02816,-2.81933 2.23526,-3.10959 0.49586,-0.69494 0.6683,-0.67295 3.05992,0.39024 1.07659,0.4786 2.82766,1.24767 3.89128,1.70907 1.48336,0.64347 1.94926,0.91063 1.99999,1.14686 0.13075,0.6088 0.38882,5.18366 0.30048,5.32661 -0.10734,0.17368 -5.30187,4.58289 -5.47514,4.6474 -0.0657,0.0245 -0.79748,-0.59418 -1.62607,-1.37479 z m 11.36021,-1.55364 c -3.53334,-1.91111 -3.20019,-1.43373 -3.46134,-4.95986 -0.19609,-2.64764 -0.30116,-2.35683 1.28488,-3.55637 0.61488,-0.46504 1.9802,-1.51793 3.03404,-2.33975 2.25823,-1.76104 1.97691,-1.72308 4.68842,-0.63268 4.55456,1.83155 5.05098,2.08066 4.9446,2.48125 -0.15664,0.58992 -7.12414,10.65907 -7.36765,10.64745 -0.0548,-0.003 -1.46009,-0.74064 -3.12295,-1.64004 z m -46.27154,-2.40063 c -1.10786,-1.71411 -3.16748,-5.10668 -3.42949,-5.64902 l -0.21129,-0.43734 3.16495,-3.09785 c 1.8755,-1.83573 3.27475,-3.0951 3.43444,-3.09111 0.14822,0.004 1.22072,0.34811 2.38332,0.76535 l 2.11383,0.75861 0.0382,5.57908 0.0382,5.57907 -0.32975,0.12296 c -0.18135,0.0676 -0.88735,0.16828 -1.56888,0.22369 -0.68152,0.0554 -1.98051,0.19556 -2.88664,0.31144 -0.90613,0.11589 -1.70936,0.2107 -1.78496,0.2107 -0.0756,0 -0.50845,-0.57401 -0.96189,-1.27558 z m 39.4547,-6.8677 c -1.24279,-0.5432 -2.91562,-1.2733 -3.71742,-1.62244 -0.8018,-0.34914 -1.54698,-0.71505 -1.65597,-0.81313 -0.18242,-0.16417 6.44623,-9.77982 7.55743,-10.96297 0.41999,-0.44718 0.32628,-0.52925 3.37427,2.95499 3.98799,4.55879 3.62589,4.02305 3.62589,5.36464 0,1.34484 0.15359,1.16295 -2.98851,3.53921 -3.96232,2.99656 -3.26119,2.82232 -6.19569,1.5397 z m -47.01439,-1.04842 c -3.51201,-1.39283 -3.28008,-1.13051 -3.28008,-3.70992 0,-2.47582 -0.16562,-2.21077 2.3325,-3.73278 4.93172,-3.00471 8.96079,-5.37854 9.12892,-5.37854 0.28575,0 0.29585,0.0364 1.07115,3.85492 0.74757,3.68202 0.76267,3.96907 0.22458,4.2702 -0.11759,0.0658 -1.51722,1.41344 -3.11029,2.99475 -1.79495,1.78169 -3.00197,2.8718 -3.17383,2.8664 -0.15253,-0.005 -1.58936,-0.52906 -3.19295,-1.16503 z m 63.48765,-0.48368 c -6.59774,-2.56371 -6.43874,-2.46779 -6.31916,-3.81222 l 0.0905,-1.01761 3.95257,-3.98363 c 4.77179,-4.80928 4.1854,-4.44088 5.59018,-3.51208 2.71137,1.79267 4.70385,3.24911 4.70385,3.43835 0,0.17667 -4.94542,7.5846 -5.94456,8.90458 -0.44078,0.58232 -0.532,0.58156 -2.07339,-0.0174 z m -50.50908,-4.10233 c -2.32918,-0.80688 -1.97753,-0.23723 -2.85643,-4.62719 -0.82678,-4.12959 0.37474,-5.81851 4.55554,-6.40351 l 0.33777,-0.0473 0.0382,5.74935 c 0.0446,6.7231 0.27115,6.14139 -2.07504,5.32861 z m 42.54417,-2.80488 c -5.84275,-6.45796 -5.6409,-5.97176 -3.61538,-8.70864 1.9102,-2.58104 1.77882,-2.48744 3.78223,-2.69471 l 1.60482,-0.16604 3.00583,1.09204 c 4.34998,1.58038 3.99448,1.38686 4.26653,2.32266 0.1281,0.44064 0.23291,0.91176 0.23291,1.04693 0,0.22889 -7.80417,8.38334 -8.02322,8.38334 -0.0548,0 -0.61898,-0.57401 -1.25372,-1.27558 z m -58.70563,-0.13364 c -0.0534,-0.0534 -0.0972,-2.50207 -0.0972,-5.44138 v -5.34419 l 0.32801,-0.30616 c 0.50347,-0.46995 0.9758,-0.51737 2.08492,-0.20935 3.77133,1.04738 5.06366,1.4078 5.914,1.64937 l 0.96498,0.27414 0.90254,1.47499 c 1.09722,1.79319 1.16876,1.60557 -1.10726,2.904 -1.02906,0.58706 -2.46144,1.42689 -3.18305,1.86628 -0.72162,0.43939 -1.67284,1.00809 -2.11383,1.26379 -0.44099,0.25569 -1.38098,0.80257 -2.08888,1.21529 -1.32477,0.77238 -1.43869,0.81877 -1.60424,0.65322 z m 72.19015,-4.91968 c -3.20771,-2.21597 -3.02542,-2.04711 -3.45489,-3.20042 l -0.31852,-0.85536 0.87571,-1.7687 c 1.16994,-2.36298 1.39763,-2.71629 1.75052,-2.71629 0.26823,0 8.41044,3.20011 8.87897,3.48968 0.35918,0.22199 0.0628,0.77713 -2.07461,3.88627 -2.59853,3.77984 -2.0387,3.66457 -5.65718,1.16482 z m -60.35839,-1.93592 c -0.12705,-0.14485 -0.53959,-0.79863 -0.91673,-1.45283 l -0.68573,-1.18945 0.16742,-1.14304 c 0.24408,-1.66648 1.00369,-6.26661 1.18141,-7.15453 l 0.1528,-0.76336 3.1093,-1.5506 c 3.85942,-1.92467 3.431,-2.50728 3.431,4.66574 v 6.01752 l -2.78609,1.33712 c -3.23673,1.55339 -3.34166,1.58881 -3.65338,1.23343 z m 54.18276,-3.52112 c -4.47835,-1.59638 -5.3347,-1.95844 -5.53103,-2.33848 -0.55528,-1.0749 -2.52819,-7.29594 -2.35846,-7.43681 0.3814,-0.31653 9.9391,-4.3878 10.30079,-4.3878 0.34643,0 2.88006,2.97256 3.90951,4.58678 0.23335,0.36592 -0.38874,1.83575 -2.93304,6.92992 -1.72094,3.44567 -1.54064,3.30483 -3.38777,2.64639 z m -58.74976,-0.44672 c -0.8018,-0.22554 -2.43829,-0.68205 -3.63665,-1.01448 -2.65595,-0.73677 -2.21155,-4.4e-4 -3.43427,-5.69032 -0.61548,-2.86409 -0.86461,-2.49121 2.5517,-3.81917 3.34791,-1.30138 3.4851,-1.32323 4.25457,-0.67768 3.18435,2.67156 3.81825,3.31496 3.73845,3.79451 -0.043,0.25828 -0.35015,2.10963 -0.68261,4.11412 -0.70713,4.26341 -0.44418,3.95319 -2.79119,3.29302 z m 72.45318,-0.23932 c -0.24054,-0.11424 -1.84777,-0.75942 -3.57163,-1.43372 -4.03797,-1.57948 -4.81117,-1.92655 -4.80902,-2.15864 0.017,-1.83942 2.2393,-4.9749 4.00722,-5.65379 0.88197,-0.33868 2.98779,-1.16678 4.67959,-1.84022 1.6918,-0.67343 3.14912,-1.22443 3.2385,-1.22443 0.39382,0 0.46432,0.67476 0.46432,4.44398 0,4.466 0.12824,3.95954 -1.63393,6.45315 -1.25866,1.78112 -1.41078,1.87166 -2.37505,1.41367 z m -92.78964,-0.75457 c -0.36857,-0.1403 -0.4328,-0.3626 -0.43511,-1.50592 -0.003,-1.39911 0.0623,-1.47968 1.74752,-2.16188 0.7615,-0.30826 3.34306,-1.35993 5.73681,-2.33704 4.64447,-1.89585 4.74646,-1.92172 4.93177,-1.25085 0.2213,0.80112 1.43087,6.35607 1.43087,6.57124 0,0.68317 -11.82934,1.28686 -13.41186,0.68445 z m 35.9619,-0.4257 c -0.16171,-0.16171 -0.11967,-11.53836 0.043,-11.6389 0.22766,-0.1407 0.62462,0.12165 3.90531,2.58102 l 3.10051,2.32429 -0.0391,3.37766 -0.0391,3.37765 -3.43543,0.039 c -1.88948,0.0215 -3.48032,-0.006 -3.53519,-0.0607 z m 8.13504,-0.0541 c -0.29124,-0.47124 -0.0763,-6.63081 0.23903,-6.84875 0.50784,-0.35103 7.76409,-4.07517 7.94705,-4.07868 0.28365,-0.005 4.57145,4.10025 4.66298,4.46494 0.0765,0.30478 -0.88991,6.22418 -1.06151,6.5019 -0.10726,0.17359 -11.67982,0.1349 -11.78755,-0.0394 z m 12.95365,-0.0765 c -0.15372,-0.40059 0.92146,-5.93867 1.19125,-6.13595 0.13237,-0.0968 0.74361,-0.37335 1.35832,-0.61458 0.61471,-0.24124 2.55365,-1.00563 4.30875,-1.69867 1.97902,-0.78144 3.30796,-1.23028 3.49875,-1.18166 0.33609,0.0856 2.42423,1.73873 2.60872,2.06519 0.44228,0.78264 2.55448,7.43045 2.41447,7.59916 -0.25899,0.31205 -15.2602,0.27938 -15.38026,-0.0335 z m -57.24496,-3.80804 c -0.0535,-0.0534 -0.0972,-3.23512 -0.0972,-7.07038 v -6.97319 h 3.99113 c 3.23503,0 4.02308,0.0385 4.15979,0.20323 0.57602,0.69407 4.03349,8.96076 3.86097,9.23146 -0.12137,0.19043 -4.61885,2.041 -9.50132,3.90948 -2.17851,0.8337 -2.25649,0.8563 -2.41338,0.6994 z m 23.71321,-4.02112 c -3.78252,-3.26762 -3.54684,-3.01833 -3.54684,-3.75158 0,-0.73492 0.63162,-4.85518 0.8775,-5.72419 l 0.15467,-0.54668 h 4.99444 c 6.04392,0 5.34432,-0.49703 5.34432,3.79687 0,4.10911 0.46274,3.41684 -3.63925,5.44434 -3.68651,1.82214 -3.10548,1.71367 -4.18484,0.78124 z m 31.86006,-1.521 c -1.6681,-1.64773 -2.3146,-2.3809 -2.3146,-2.62488 0,-0.36921 1.12871,-5.55211 1.25287,-5.75299 0.1705,-0.27589 11.68081,-0.14751 11.79325,0.13154 0.11859,0.2943 0.64746,5.48845 0.65335,6.41672 0.004,0.56213 -0.0416,0.64252 -0.46984,0.83608 -0.9083,0.41055 -8.30051,3.27988 -8.4499,3.27988 -0.0828,0 -1.1921,-1.02886 -2.46513,-2.28635 z m -15.09502,-0.39177 c -1.61711,-1.21305 -3.25715,-2.43632 -3.64453,-2.71838 l -0.70432,-0.51283 v -2.40279 -2.40279 l 8.56464,-0.0376 8.56463,-0.0376 -0.002,0.54784 c -10e-4,0.30132 -0.0928,0.94146 -0.20351,1.42253 -0.11074,0.48108 -0.31485,1.51726 -0.45358,2.30263 -0.32084,1.81626 -0.20166,1.70298 -3.6413,3.46112 -1.60359,0.81967 -3.38291,1.74418 -3.95404,2.05448 -1.38661,0.75336 -1.18879,0.82664 -4.52584,-1.67659 z m 45.8492,1.47864 c -0.48288,-0.38294 -3.80578,-4.8518 -3.97866,-5.35075 -0.36821,-1.06271 -0.98401,-3.80428 -0.90232,-4.01717 0.074,-0.19273 1.02797,-0.2204 7.60049,-0.2204 h 7.5159 l 0.14554,0.38279 c 0.0825,0.21691 0.12829,1.46045 0.10573,2.86956 l -0.0398,2.48677 -2.69695,1.07127 c -1.48332,0.58921 -3.71377,1.46819 -4.95656,1.9533 -1.24278,0.4851 -2.32709,0.91083 -2.40957,0.94604 -0.0825,0.0352 -0.25519,-0.0194 -0.38379,-0.12141 z m -15.72651,-0.38528 c -0.46231,-0.18901 -2.34844,-1.80651 -2.45956,-2.10926 -0.1442,-0.39285 -0.61129,-4.79463 -0.64447,-6.07331 l -0.0246,-0.94758 6.37792,-0.038 c 3.50785,-0.0209 6.37792,-0.0188 6.37792,0.005 0,0.0235 0.25712,1.04292 0.57137,2.26548 l 0.57137,2.22283 -0.31625,0.20581 c -0.24306,0.15818 -6.92506,3.14249 -9.79203,4.37332 -0.24053,0.10326 -0.5383,0.14648 -0.66169,0.096 z m -58.38591,-1.95043 c -0.3793,-0.90202 -1.17603,-2.77918 -1.77052,-4.17145 -1.44304,-3.37958 -1.97641,-3.00112 4.29348,-3.04653 l 5.2826,-0.0383 v 0.4629 c 0,4.67109 -0.81455,6.21085 -3.91668,7.40375 -3.40495,1.30935 -3.05879,1.36369 -3.88888,-0.6104 z"
       id="path299" />
  </g>
</svg>
